<svg xmlns="http://www.w3.org/2000/svg" viewBox="0 0 640 400" role="img" aria-label="STM32">
  <defs>
    <linearGradient id="g" x1="0" y1="0" x2="1" y2="1">
      <stop offset="0%" stop-color="#1e3a5f"/>
      <stop offset="100%" stop-color="#0f1f33"/>
    </linearGradient>
  </defs>
  <rect width="640" height="400" fill="url(#g)"/>
  <rect x="200" y="110" width="240" height="180" rx="8" fill="#2b527a"/>
  <rect x="230" y="145" width="180" height="110" rx="4" fill="#0f1f33"/>
  <g fill="#7eb6ff">
    <rect x="170" y="140" width="24" height="8" rx="2"/>
    <rect x="170" y="160" width="24" height="8" rx="2"/>
    <rect x="170" y="180" width="24" height="8" rx="2"/>
    <rect x="170" y="200" width="24" height="8" rx="2"/>
    <rect x="170" y="220" width="24" height="8" rx="2"/>
    <rect x="446" y="140" width="24" height="8" rx="2"/>
    <rect x="446" y="160" width="24" height="8" rx="2"/>
    <rect x="446" y="180" width="24" height="8" rx="2"/>
    <rect x="446" y="200" width="24" height="8" rx="2"/>
    <rect x="446" y="220" width="24" height="8" rx="2"/>
  </g>
  <text x="320" y="360" text-anchor="middle" fill="#d6e6f7" font-family="Georgia, serif" font-size="28" font-weight="700">STM32 / ARM</text>
</svg>
